# xmcd CD database file
#
# Track frame offsets:
#	150
#	25595
#	50822
#	81447
#	101557
#	120532
#	157042
#	172617
#	201102
#	215580
#	231045
#	259495
#
# Disc length: 3746 seconds
#
# Revision: 0
# Processed by: cddbd v1.4PL0 Copyright (c) Steve Scherf et al.
# Submitted via: CDex 1.50beta10
#
DISCID=a10ea00c
DTITLE=Freddy Cole - A Circle of Love
DYEAR=1993
DGENRE=Jazz
TTITLE0=Temptation
TTITLE1=A Circle Of Love
TTITLE2=Black Orpheus Theme
TTITLE3=Never Let Me Go
TTITLE4=We're Almost Close To Love
TTITLE5=Angel Eyes
TTITLE6=How Little We Know
TTITLE7=Portrait Of Jennie
TTITLE8=Quiza, Quizas, Quizas
TTITLE9=I Wonder Who My Daddy Is
TTITLE10=All Too Soon
TTITLE11=September Morn
EXTD=YEAR: 1993
EXTT0=
EXTT1=
EXTT2=
EXTT3=
EXTT4=
EXTT5=
EXTT6=
EXTT7=
EXTT8=
EXTT9=
EXTT10=
EXTT11=
PLAYORDER=
